<svg xmlns="http://www.w3.org/2000/svg" viewBox="18.24 18.477 323.52 137.259" role="img" aria-label="Ippersiel Collab"><title>Ippersiel Collab</title><defs><mask id="ic-k-n" maskUnits="userSpaceOnUse" x="18.24" y="18.477" width="323.52" height="137.259"><rect x="18.24" y="18.477" width="323.52" height="137.259" fill="#fff"/><path fill="#000" d="M 64.679688 129.710938 C 63.222656 130.515625 61.460938 131.300781 59.445312 132.042969 C 57.523438 132.753906 55.53125 133.109375 53.523438 133.109375 C 50.332031 133.109375 47.5 132.433594 45.09375 131.097656 C 42.710938 129.777344 40.832031 127.90625 39.507812 125.546875 C 38.171875 123.171875 37.492188 120.378906 37.492188 117.242188 C 37.492188 114.339844 38.0625 111.664062 39.191406 109.292969 C 40.292969 106.964844 41.945312 105.082031 44.101562 103.695312 C 46.253906 102.308594 49 101.605469 52.257812 101.605469 C 53.519531 101.605469 54.789062 101.777344 56.039062 102.117188 C 57.304688 102.457031 58.53125 102.941406 59.679688 103.546875 C 60.824219 104.160156 61.84375 104.859375 62.710938 105.632812 L 63.820312 106.617188 L 71.941406 93.6875 L 71.214844 92.980469 C 68.933594 90.753906 66.089844 89.054688 62.769531 87.917969 C 59.5 86.796875 56.121094 86.230469 52.730469 86.230469 C 47.691406 86.230469 43.183594 87.074219 39.332031 88.738281 C 35.472656 90.414062 32.167969 92.734375 29.511719 95.636719 C 26.851562 98.542969 24.828125 101.910156 23.496094 105.648438 C 22.160156 109.367188 21.484375 113.375 21.484375 117.554688 C 21.484375 121.679688 22.175781 125.671875 23.535156 129.429688 C 24.898438 133.195312 26.921875 136.574219 29.546875 139.472656 C 32.1875 142.386719 35.449219 144.71875 39.242188 146.40625 C 43.039062 148.101562 47.421875 148.960938 52.257812 148.960938 C 54.902344 148.960938 57.800781 148.648438 60.878906 148.03125 C 64.050781 147.386719 67.242188 145.921875 70.359375 143.671875 L 71.128906 143.117188 L 65.960938 129.007812 Z M 64.679688 129.710938 "/><path fill="#000" d="M 115.582031 117.792969 C 115.582031 120.886719 114.941406 123.648438 113.683594 126 C 112.425781 128.339844 110.675781 130.195312 108.488281 131.515625 C 106.308594 132.835938 103.835938 133.507812 101.132812 133.507812 C 98.429688 133.507812 95.96875 132.835938 93.8125 131.519531 C 91.644531 130.195312 89.898438 128.335938 88.617188 125.992188 C 87.332031 123.640625 86.679688 120.878906 86.679688 117.792969 C 86.679688 114.648438 87.320312 111.859375 88.585938 109.503906 C 89.835938 107.167969 91.582031 105.3125 93.773438 103.992188 C 95.960938 102.667969 98.4375 102 101.132812 102 C 103.824219 102 106.28125 102.679688 108.441406 104.019531 C 110.605469 105.367188 112.359375 107.242188 113.644531 109.589844 C 114.929688 111.949219 115.582031 114.707031 115.582031 117.792969 M 123.132812 95.875 C 120.507812 92.980469 117.304688 90.660156 113.609375 88.980469 C 109.910156 87.3125 105.710938 86.464844 101.132812 86.464844 C 97.015625 86.464844 93.097656 87.316406 89.476562 88.988281 C 85.871094 90.65625 82.636719 92.964844 79.863281 95.847656 C 77.082031 98.742188 74.875 102.097656 73.296875 105.820312 C 71.710938 109.566406 70.910156 113.59375 70.910156 117.792969 C 70.910156 121.972656 71.628906 125.988281 73.042969 129.722656 C 74.460938 133.457031 76.507812 136.816406 79.128906 139.707031 C 81.753906 142.609375 84.960938 144.925781 88.660156 146.601562 C 92.355469 148.273438 96.550781 149.121094 101.132812 149.121094 C 105.246094 149.121094 109.167969 148.269531 112.785156 146.597656 C 116.390625 144.925781 119.628906 142.621094 122.398438 139.738281 C 125.179688 136.847656 127.390625 133.492188 128.964844 129.765625 C 130.550781 126.019531 131.355469 121.992188 131.355469 117.792969 C 131.355469 113.609375 130.636719 109.59375 129.21875 105.863281 C 127.804688 102.136719 125.757812 98.777344 123.132812 95.875 "/><path fill="#000" d="M 151.25 87.09375 L 135.636719 87.09375 L 135.636719 147.777344 L 175.558594 147.777344 L 175.558594 132.714844 L 151.25 132.714844 Z M 151.25 87.09375 "/><path fill="#000" d="M 195.132812 87.09375 L 179.519531 87.09375 L 179.519531 147.777344 L 219.441406 147.777344 L 219.441406 132.714844 L 195.132812 132.714844 Z M 195.132812 87.09375 "/><path fill="#000" d="M 260.03125 121.039062 L 249.414062 121.039062 L 254.695312 105.285156 Z M 244.265625 87.097656 L 222.695312 147.777344 L 240.457031 147.777344 L 244.289062 136.335938 L 265.210938 136.335938 L 269.113281 147.855469 L 286.605469 147.855469 L 265.941406 87.097656 Z M 244.265625 87.097656 "/><path fill="#000" d="M 304.8125 109.988281 L 304.8125 101.605469 L 314.609375 101.605469 C 315.832031 101.605469 316.925781 101.757812 317.855469 102.058594 C 318.667969 102.320312 319.269531 102.710938 319.695312 103.253906 C 320.09375 103.765625 320.296875 104.511719 320.296875 105.480469 C 320.296875 107.023438 319.816406 108.078125 318.789062 108.789062 C 317.636719 109.585938 316.042969 109.988281 314.054688 109.988281 Z M 321.136719 126.242188 C 321.578125 126.828125 321.800781 127.675781 321.800781 128.765625 C 321.800781 129.691406 321.574219 130.433594 321.113281 131.039062 C 320.613281 131.683594 319.984375 132.164062 319.199219 132.503906 C 318.375 132.859375 317.492188 133.03125 316.5 133.03125 L 304.8125 133.03125 L 304.8125 124.335938 L 316.027344 124.335938 C 317.234375 124.335938 318.308594 124.507812 319.214844 124.847656 C 320.050781 125.160156 320.675781 125.617188 321.136719 126.242188 M 336.980469 122.550781 C 335.953125 120.335938 334.355469 118.359375 332.234375 116.683594 C 331.6875 116.253906 331.078125 115.847656 330.398438 115.464844 C 330.566406 115.355469 330.730469 115.238281 330.890625 115.117188 C 332.925781 113.53125 334.398438 111.65625 335.261719 109.550781 C 336.109375 107.488281 336.539062 105.480469 336.539062 103.589844 C 336.539062 98.644531 334.746094 94.605469 331.207031 91.582031 C 327.726562 88.605469 322.988281 87.09375 317.132812 87.09375 L 289.203125 87.09375 L 289.203125 147.777344 L 319.347656 147.777344 C 323.070312 147.777344 326.410156 146.96875 329.269531 145.371094 C 332.136719 143.769531 334.417969 141.554688 336.050781 138.792969 C 337.6875 136.027344 338.515625 132.890625 338.515625 129.46875 C 338.515625 127.089844 338 124.761719 336.980469 122.550781 "/></mask></defs><g mask="url(#ic-k-n)" fill="#0A0A0A"><path d="M 341.722656 155.695312 L 18.277344 155.695312 L 18.277344 79.652344 L 341.722656 79.652344 Z M 341.722656 155.695312 "/><path d="M 18.277344 71.351562 L 23.21875 71.351562 L 23.21875 19.160156 L 18.277344 19.160156 Z M 18.277344 71.351562 "/><path d="M 62.660156 42.460938 C 60.277344 44.441406 57.152344 45.429688 53.28125 45.429688 L 38.894531 45.429688 L 38.894531 23.8125 L 53.640625 23.8125 C 55.738281 23.8125 57.746094 24.179688 59.652344 24.921875 C 61.5625 25.664062 63.136719 26.792969 64.378906 28.320312 C 65.621094 29.851562 66.242188 31.78125 66.242188 34.121094 C 66.242188 37.703125 65.042969 40.480469 62.660156 42.460938 M 63.164062 20.945312 C 60.585938 19.753906 57.652344 19.160156 54.359375 19.160156 L 33.953125 19.160156 L 33.953125 71.351562 L 38.894531 71.351562 L 38.894531 50.015625 L 53.78125 50.015625 C 56.9375 50.015625 59.859375 49.429688 62.554688 48.257812 C 65.25 47.089844 67.398438 45.289062 68.996094 42.851562 C 70.597656 40.421875 71.398438 37.34375 71.398438 33.621094 C 71.398438 30.660156 70.664062 28.109375 69.210938 25.957031 C 67.753906 23.8125 65.742188 22.140625 63.164062 20.945312 "/><path d="M 108.984375 42.460938 C 106.59375 44.441406 103.46875 45.429688 99.605469 45.429688 L 85.214844 45.429688 L 85.214844 23.8125 L 99.960938 23.8125 C 102.0625 23.8125 104.0625 24.179688 105.972656 24.921875 C 107.882812 25.664062 109.460938 26.792969 110.699219 28.320312 C 111.9375 29.851562 112.558594 31.78125 112.558594 34.121094 C 112.558594 37.703125 111.367188 40.480469 108.984375 42.460938 M 109.480469 20.945312 C 106.902344 19.753906 103.96875 19.160156 100.675781 19.160156 L 80.273438 19.160156 L 80.273438 71.351562 L 85.214844 71.351562 L 85.214844 50.015625 L 100.105469 50.015625 C 103.253906 50.015625 106.175781 49.429688 108.875 48.257812 C 111.570312 47.089844 113.714844 45.289062 115.316406 42.851562 C 116.914062 40.421875 117.714844 37.34375 117.714844 33.621094 C 117.714844 30.660156 116.988281 28.109375 115.53125 25.957031 C 114.074219 23.8125 112.058594 22.140625 109.480469 20.945312 "/><path d="M 129.382812 19.160156 L 126.59375 19.160156 L 126.59375 71.351562 L 159.808594 71.351562 L 159.808594 66.984375 L 131.535156 66.984375 L 131.535156 46.148438 L 148.785156 46.148438 L 148.785156 41.707031 L 131.535156 41.707031 L 131.535156 23.523438 L 159.808594 23.523438 L 159.808594 19.160156 Z M 129.382812 19.160156 "/><path d="M 170.546875 23.8125 L 185.363281 23.8125 C 187.417969 23.8125 189.410156 24.179688 191.34375 24.921875 C 193.28125 25.664062 194.863281 26.78125 196.101562 28.285156 C 197.347656 29.789062 197.964844 31.710938 197.964844 34.050781 C 197.964844 37.628906 196.773438 40.386719 194.386719 42.320312 C 192 44.25 188.871094 45.214844 185.007812 45.214844 L 170.546875 45.214844 Z M 194.242188 48.117188 C 196.917969 46.949219 199.0625 45.160156 200.6875 42.75 C 202.308594 40.339844 203.121094 37.269531 203.121094 33.546875 C 203.121094 30.636719 202.390625 28.097656 200.941406 25.925781 C 199.480469 23.75 197.46875 22.082031 194.890625 20.914062 C 192.3125 19.746094 189.375 19.160156 186.082031 19.160156 L 165.605469 19.160156 L 165.605469 71.351562 L 170.546875 71.351562 L 170.546875 49.871094 L 180.597656 49.871094 L 197.894531 71.566406 L 204.550781 71.566406 L 186.820312 49.742188 C 189.457031 49.597656 191.953125 49.117188 194.242188 48.117188 "/><path d="M 240.277344 45.683594 C 237.792969 44.179688 234.265625 42.804688 229.679688 41.566406 C 225.863281 40.515625 223.023438 39.445312 221.164062 38.339844 C 219.300781 37.246094 218.074219 36.101562 217.476562 34.910156 C 216.878906 33.714844 216.582031 32.523438 216.582031 31.328125 C 216.582031 29.945312 217.023438 28.632812 217.90625 27.390625 C 218.789062 26.152344 220.109375 25.125 221.878906 24.3125 C 223.640625 23.5 225.863281 23.09375 228.535156 23.09375 C 231.445312 23.09375 234.164062 23.644531 236.695312 24.742188 C 239.226562 25.839844 241.5625 27.367188 243.710938 29.324219 L 246.792969 25.386719 C 244.5 23.046875 241.78125 21.304688 238.628906 20.160156 C 235.484375 19.015625 232.210938 18.441406 228.820312 18.441406 C 225.003906 18.441406 221.804688 19.027344 219.226562 20.195312 C 216.652344 21.363281 214.695312 22.953125 213.355469 24.957031 C 212.023438 26.960938 211.355469 29.207031 211.355469 31.6875 C 211.355469 35.265625 212.628906 38.226562 215.1875 40.5625 C 217.738281 42.898438 221.832031 44.835938 227.460938 46.363281 C 230.65625 47.171875 233.214844 48.007812 235.121094 48.867188 C 237.03125 49.726562 238.472656 50.597656 239.453125 51.480469 C 240.429688 52.363281 241.089844 53.304688 241.421875 54.308594 C 241.757812 55.3125 241.925781 56.382812 241.925781 57.527344 C 241.925781 59.488281 241.394531 61.195312 240.351562 62.648438 C 239.300781 64.105469 237.839844 65.242188 235.980469 66.050781 C 234.117188 66.863281 232.042969 67.269531 229.753906 67.269531 C 226.363281 67.222656 223.144531 66.480469 220.089844 65.046875 C 217.03125 63.617188 214.507812 61.800781 212.5 59.605469 L 208.851562 63.472656 C 210.757812 65.429688 212.808594 67.039062 215.003906 68.308594 C 217.199219 69.574219 219.503906 70.515625 221.914062 71.136719 C 224.324219 71.753906 226.839844 72.066406 229.464844 72.066406 C 233.234375 72.066406 236.433594 71.421875 239.058594 70.132812 C 241.683594 68.847656 243.65625 67.050781 244.964844 64.761719 C 246.28125 62.46875 246.933594 59.871094 246.933594 56.960938 C 246.933594 54.667969 246.445312 52.589844 245.46875 50.726562 C 244.484375 48.867188 242.761719 47.1875 240.277344 45.683594 "/><path d="M 256.171875 71.351562 L 261.113281 71.351562 L 261.113281 19.160156 L 256.171875 19.160156 Z M 256.171875 71.351562 "/><path d="M 274.644531 19.160156 L 271.851562 19.160156 L 271.851562 71.351562 L 305.066406 71.351562 L 305.066406 66.984375 L 276.792969 66.984375 L 276.792969 46.148438 L 294.046875 46.148438 L 294.046875 41.707031 L 276.792969 41.707031 L 276.792969 23.523438 L 305.066406 23.523438 L 305.066406 19.160156 Z M 274.644531 19.160156 "/><path d="M 315.804688 66.910156 L 315.804688 19.160156 L 310.867188 19.160156 L 310.867188 71.351562 L 341.722656 71.351562 L 341.722656 66.910156 Z M 315.804688 66.910156 "/></g></svg>